<svg xmlns="http://www.w3.org/2000/svg" height="120" id="S_Illu_AddFootageAe_160x120" viewBox="0 0 160 120" width="160">
  <defs>
    <style>
	.cls-1 {
        fill: #b3b3b3;
      }</style>
  </defs>
  <title>S_Illu_AddFootageAe_160x120</title>
  <path class="cls-1" d="M119.509,35a1.5,1.5,0,0,1-1.492-1.5V30.373c0-.124-.112-.373-.25-.373H42.233c-.138,0-.25.249-.25.373V33.5A1.492,1.492,0,1,1,39,33.5V30.373a3.233,3.233,0,0,1,3.233-3.225h75.534A3.233,3.233,0,0,1,121,30.373V33.5A1.5,1.5,0,0,1,119.509,35Z" />
  <path class="cls-1" d="M110.522,26a1.49,1.49,0,0,1-1.478-1.5V22.237c0-.125-.562-.237-.7-.237H51.478c-.137,0-.522.112-.522.237V24.5A1.478,1.478,0,1,1,48,24.5V22.237a3.219,3.219,0,0,1,3.2-3.227H108.8a3.219,3.219,0,0,1,3.2,3.227V24.5A1.489,1.489,0,0,1,110.522,26Z" />
  <path class="cls-1" d="M41.943,52.132l-3.434,0a2.147,2.147,0,0,1-2.144-2.144V46.551a2.148,2.148,0,0,1,2.145-2.144l3.435,0a2.146,2.146,0,0,1,2.144,2.144l0,3.435A2.147,2.147,0,0,1,41.943,52.132Zm-3.432-5.725a.144.144,0,0,0-.145.144v3.435a.144.144,0,0,0,.144.144l3.435,0a.144.144,0,0,0,.144-.144l0-3.435a.144.144,0,0,0-.145-.144h0Z" />
  <path class="cls-1" d="M61.4,52.139H57.969a2.148,2.148,0,0,1-2.143-2.146V46.558a2.148,2.148,0,0,1,2.145-2.145l3.435,0a2.147,2.147,0,0,1,2.144,2.145l0,3.434A2.147,2.147,0,0,1,61.4,52.139Zm-3.432-5.726a.146.146,0,0,0-.145.146v3.434a.145.145,0,0,0,.145.145h3.434a.144.144,0,0,0,.144-.145l0-3.434a.145.145,0,0,0-.145-.145h0Z" />
  <path class="cls-1" d="M82.012,52.146H78.575A2.148,2.148,0,0,1,76.431,50l0-3.433a2.147,2.147,0,0,1,2.145-2.145h3.434a2.148,2.148,0,0,1,2.144,2.146V50a2.144,2.144,0,0,1-2.143,2.144Zm-3.435-5.725a.145.145,0,0,0-.144.145l0,3.433a.146.146,0,0,0,.145.146H82.01A.143.143,0,0,0,82.155,50V46.568a.146.146,0,0,0-.144-.146H78.577Z" />
  <path class="cls-1" d="M101.471,52.154l-3.435,0a2.144,2.144,0,0,1-2.144-2.146V46.573a2.149,2.149,0,0,1,2.146-2.145h3.435a2.149,2.149,0,0,1,2.143,2.146v3.434A2.148,2.148,0,0,1,101.471,52.154Zm-3.433-5.726a.146.146,0,0,0-.145.146v3.433a.162.162,0,0,0,.144.145l3.435,0a.145.145,0,0,0,.145-.145V46.575a.146.146,0,0,0-.145-.146Z" />
  <path class="cls-1" d="M120.932,52.161l-3.435,0a2.144,2.144,0,0,1-2.144-2.146V46.579a2.148,2.148,0,0,1,2.145-2.144l3.435,0a2.146,2.146,0,0,1,2.144,2.145v3.434A2.149,2.149,0,0,1,120.932,52.161ZM117.5,46.435a.145.145,0,0,0-.145.145v3.434a.163.163,0,0,0,.144.145l3.435,0a.146.146,0,0,0,.145-.146V46.581a.163.163,0,0,0-.144-.144h0Z" />
  <path class="cls-1" d="M41.943,96.837l-3.434,0a2.147,2.147,0,0,1-2.144-2.144V91.256a2.148,2.148,0,0,1,2.145-2.144h3.436a2.149,2.149,0,0,1,2.143,2.145l0,3.435A2.147,2.147,0,0,1,41.943,96.837Zm-3.432-5.725a.144.144,0,0,0-.145.144v3.435a.144.144,0,0,0,.144.144l3.435,0a.144.144,0,0,0,.144-.144l0-3.435a.146.146,0,0,0-.145-.145Z" />
  <path class="cls-1" d="M61.4,96.844l-3.435,0A2.142,2.142,0,0,1,55.826,94.7V91.263a2.148,2.148,0,0,1,2.145-2.144h3.435a2.147,2.147,0,0,1,2.144,2.145l0,3.435A2.147,2.147,0,0,1,61.4,96.844Zm-3.432-5.725a.145.145,0,0,0-.145.145V94.7a.162.162,0,0,0,.144.144l3.435,0a.144.144,0,0,0,.144-.144l0-3.435a.145.145,0,0,0-.145-.145H57.972Z" />
  <path class="cls-1" d="M82.01,96.851H78.575A2.148,2.148,0,0,1,76.431,94.7l0-3.433a2.147,2.147,0,0,1,2.145-2.145h3.434a2.148,2.148,0,0,1,2.144,2.146v3.433A2.148,2.148,0,0,1,82.01,96.851Zm-3.433-5.725a.145.145,0,0,0-.144.145l0,3.433a.145.145,0,0,0,.145.146H82.01a.145.145,0,0,0,.145-.145V91.273a.146.146,0,0,0-.144-.146H78.577Z" />
  <path class="cls-1" d="M101.473,96.858H98.036a2.146,2.146,0,0,1-2.144-2.147V91.278a2.149,2.149,0,0,1,2.146-2.145h3.434a2.148,2.148,0,0,1,2.144,2.146v3.434a2.144,2.144,0,0,1-2.143,2.144Zm-3.435-5.725a.146.146,0,0,0-.145.146v3.432a.163.163,0,0,0,.144.146h3.435a.143.143,0,0,0,.145-.144V91.28a.146.146,0,0,0-.144-.146H98.038Z" />
  <path class="cls-1" d="M120.932,96.866l-3.435,0a2.144,2.144,0,0,1-2.144-2.146V91.285A2.148,2.148,0,0,1,117.5,89.14h3.436a2.148,2.148,0,0,1,2.143,2.146v3.434A2.149,2.149,0,0,1,120.932,96.866ZM117.5,91.14a.145.145,0,0,0-.145.146v3.433a.163.163,0,0,0,.144.145l3.435,0a.146.146,0,0,0,.145-.146V91.286a.146.146,0,0,0-.146-.145Z" />
  <path class="cls-1" d="M127.188,105H32.812A4.811,4.811,0,0,1,28,100.2V40.812A4.817,4.817,0,0,1,32.812,36h94.376A4.817,4.817,0,0,1,132,40.812V100.2A4.811,4.811,0,0,1,127.188,105ZM32.812,39A1.814,1.814,0,0,0,31,40.812V100.2a1.807,1.807,0,0,0,1.812,1.8h94.376A1.807,1.807,0,0,0,129,100.2V40.812A1.814,1.814,0,0,0,127.188,39Z" />
  <path class="cls-1" d="M80,57.265h0a.994.994,0,0,1,.994.994V82.97a1,1,0,0,1-1,1h0a.994.994,0,0,1-.994-.994V58.26A1,1,0,0,1,80,57.265Z" />
  </svg>