<svg xmlns="http://www.w3.org/2000/svg" height="200" id="S_Illu_Localization_520x200" viewBox="0 0 520 200" width="520">
  <defs>
    <style>
      .cls-1 {
        fill: #b3b3b3;
      }

      
    </style>
  </defs>
  <title>S_Illu_Localization_520x200</title>
  <path class="cls-1" d="M324.5,99.207a63.522,63.522,0,0,0-90.142-57.653l-.01,0c-.023.011-.046.019-.069.03a63.618,63.618,0,0,0-26.5,22.968v0l-.008.011a63.539,63.539,0,0,0,0,69.274l.008.011v0h0a63.611,63.611,0,0,0,26.5,22.968c.023.011.046.02.069.03l0,0A62.968,62.968,0,0,0,261,162.707h0a62.968,62.968,0,0,0,26.646-5.848l0,0c.022-.01.046-.019.068-.03a63.611,63.611,0,0,0,26.5-22.968h0v0l.008-.011A63.254,63.254,0,0,0,324.5,99.207Zm-115,31.755a60.223,60.223,0,0,1-8.977-30.255h24.807a76.71,76.71,0,0,0,3.768,22.367A71.54,71.54,0,0,0,209.5,130.962Zm0-63.508a71.54,71.54,0,0,0,19.6,7.888,76.7,76.7,0,0,0-3.768,22.365H200.527A60.216,60.216,0,0,1,209.5,67.454Zm101.5-2.3c.24.351.483.7.716,1.057a60.227,60.227,0,0,1,9.757,31.5H296.415a76.651,76.651,0,0,0-4.121-23.142,65.883,65.883,0,0,0,18.06-7.927A1.5,1.5,0,0,0,311,65.152ZM293.415,97.707H262.5V79.049A126.79,126.79,0,0,0,289.4,75.355,73.645,73.645,0,0,1,293.415,97.707ZM262.5,76.047V56.19a34.929,34.929,0,0,0,13.9-3.6,70.139,70.139,0,0,1,11.957,19.946A124.119,124.119,0,0,1,262.5,76.047Zm0-22.858V40.335a65.432,65.432,0,0,1,11.815,9.928A31.855,31.855,0,0,1,262.5,53.189Zm3.257-14.278a59.74,59.74,0,0,1,18.666,4.519,40.577,40.577,0,0,1-7.34,5.409A68.7,68.7,0,0,0,265.757,38.911ZM244.6,48.654a40.711,40.711,0,0,1-7.019-5.224,59.732,59.732,0,0,1,17.972-4.463A68.754,68.754,0,0,0,244.6,48.654Zm14.9-8.747V53.189A31.9,31.9,0,0,1,247.345,50.1,65.406,65.406,0,0,1,259.5,39.907Zm0,16.283V76.117l-.225,0a128.9,128.9,0,0,1-26.238-2.906,70.276,70.276,0,0,1,12.225-20.785A35,35,0,0,0,259.5,56.19Zm-2.323,22.9a1.525,1.525,0,0,0,.372.052c.578,0,1.15-.017,1.726-.024l.225,0V97.707H228.334a73.707,73.707,0,0,1,3.694-21.656A130.267,130.267,0,0,0,257.177,79.091Zm-28.843,21.616H259.5v18.586a131.724,131.724,0,0,0-27.471,3.071A73.676,73.676,0,0,1,228.334,100.707ZM259.5,122.293v19.933a34.982,34.982,0,0,0-14.238,3.762A70.268,70.268,0,0,1,233.037,125.2,129.121,129.121,0,0,1,259.5,122.293Zm0,22.933v13.282a65.432,65.432,0,0,1-12.154-10.191A31.929,31.929,0,0,1,259.5,145.226Zm-3.951,14.222a59.715,59.715,0,0,1-17.972-4.462,40.757,40.757,0,0,1,7.019-5.225A68.7,68.7,0,0,0,255.549,159.448Zm21.855-9.687a40.757,40.757,0,0,1,7.019,5.225,59.715,59.715,0,0,1-17.972,4.462A68.7,68.7,0,0,0,277.4,149.761Zm-14.9,8.747V145.226a31.929,31.929,0,0,1,12.154,3.091A65.432,65.432,0,0,1,262.5,158.508Zm0-16.282V122.293a129.121,129.121,0,0,1,26.463,2.909,70.268,70.268,0,0,1-12.225,20.786A34.982,34.982,0,0,0,262.5,142.226Zm0-22.933V100.707h31.166a73.676,73.676,0,0,1-3.695,21.657A131.724,131.724,0,0,0,262.5,119.293Zm34.166-18.586h24.807a60.223,60.223,0,0,1-8.977,30.255,71.54,71.54,0,0,0-19.6-7.888A76.71,76.71,0,0,0,296.666,100.707Zm13.6-36.615a1.489,1.489,0,0,0-1.574.05,63.13,63.13,0,0,1-17.423,7.609,73.252,73.252,0,0,0-12.161-20.619,44.557,44.557,0,0,0,8.273-6.375A60.588,60.588,0,0,1,310.264,64.092ZM234.621,44.757a44.668,44.668,0,0,0,7.961,6.185A73.379,73.379,0,0,0,230.1,72.512a68.787,68.787,0,0,1-18.954-7.571A60.6,60.6,0,0,1,234.621,44.757Zm-23.478,88.717A68.818,68.818,0,0,1,230.1,125.9a73.4,73.4,0,0,0,12.486,21.569,44.645,44.645,0,0,0-7.962,6.186A60.6,60.6,0,0,1,211.143,133.474Zm76.236,20.185a44.645,44.645,0,0,0-7.962-6.186A73.4,73.4,0,0,0,291.9,125.9a68.818,68.818,0,0,1,18.954,7.57A60.6,60.6,0,0,1,287.379,153.659Z" />
  <path class="cls-1" d="M138.454,65.741l6.39-6.391a1.5,1.5,0,0,0-2.121-2.121l-6.39,6.39-6.391-6.39a1.5,1.5,0,0,0-2.121,2.121l6.391,6.391-6.391,6.39a1.5,1.5,0,1,0,2.121,2.121l6.391-6.39,6.39,6.39a1.5,1.5,0,0,0,2.121-2.121Z" />
  <path class="cls-1" d="M147.5,104.35a1.5,1.5,0,0,1-.955-.343L129.677,90.085H115.3A17.317,17.317,0,0,1,98,72.787V56.3A17.318,17.318,0,0,1,115.3,39h44.4A17.32,17.32,0,0,1,177,56.3V72.786a17.319,17.319,0,0,1-17.3,17.3H149V102.85a1.5,1.5,0,0,1-1.5,1.5ZM115.3,42A14.314,14.314,0,0,0,101,56.3V72.787a14.314,14.314,0,0,0,14.3,14.3h14.918a1.5,1.5,0,0,1,.954.343L146,99.667V88.585a1.5,1.5,0,0,1,1.5-1.5h12.2a14.317,14.317,0,0,0,14.3-14.3V56.3A14.317,14.317,0,0,0,159.7,42Z" />
  <path class="cls-1" d="M374.549,104.35a1.5,1.5,0,0,1-1.5-1.5V90.085H362.3a17.319,17.319,0,0,1-17.3-17.3V56.3A17.32,17.32,0,0,1,362.3,39h44.4A17.318,17.318,0,0,1,424,56.3V72.787a17.317,17.317,0,0,1-17.3,17.3H392.324l-16.818,13.92A1.493,1.493,0,0,1,374.549,104.35ZM362.3,42A14.316,14.316,0,0,0,348,56.3V72.786a14.316,14.316,0,0,0,14.3,14.3h12.25a1.5,1.5,0,0,1,1.5,1.5V99.661L390.827,87.43a1.5,1.5,0,0,1,.957-.345H406.7a14.314,14.314,0,0,0,14.3-14.3V56.3A14.314,14.314,0,0,0,406.7,42Z" />
  </svg>