<svg xmlns="http://www.w3.org/2000/svg" viewBox="0 0 39.039 51.686">
  <defs>
    <style>
      .cls-1 {
        fill: #fff;
        stroke: #fff;
        stroke-width: 2px;
      }

      .cls-2 {
        fill: #4b4b4b;
        stroke: #a0a0a0;
      }
    </style>
  </defs>
  <g id="group-38" transform="translate(-7.462 -5.75)">
    <path id="path" class="cls-1" d="M9.5,6.5Z" transform="translate(-1.096 -0.75)"/>
    <path id="path-2" data-name="path" class="cls-2" d="M35.538,9H10.769A2.079,2.079,0,0,0,9,11.278V55.7a2.079,2.079,0,0,0,1.769,2.278h34.5A2.079,2.079,0,0,0,47.038,55.7V23.806Zm.885,2.733,8.492,10.934H37.308c-.531,0-.885-.456-.885-1.139ZM46.154,55.7c0,.683-.354,1.139-.885,1.139h-34.5c-.531,0-.885-.456-.885-1.139V11.278c0-.683.354-1.394.885-1.394H35.538V21.528c0,1.253.626,1.563,1.6,1.563h9.017Z" transform="translate(-1.038 -1.038)"/>
  </g>
</svg>
